<?xml version="1.0" encoding="utf-8"?>
<!-- Generator: Adobe Illustrator 20.0.0, SVG Export Plug-In . SVG Version: 6.00 Build 0)  -->
<svg version="1.1" id="Calque_1" xmlns="http://www.w3.org/2000/svg" xmlns:xlink="http://www.w3.org/1999/xlink" x="0px" y="0px"
	 viewBox="0 0 130 50" style="enable-background:new 0 0 130 50;" xml:space="preserve">
<style type="text/css">
	.st0{fill:#41352E;}
	.st1{clip-path:url(#SVGID_2_);fill:#FFFFFF;}
	.st2{fill:#FFFFFF;}
	.st3{clip-path:url(#SVGID_4_);fill:#FFFFFF;}
	.st4{clip-path:url(#SVGID_6_);fill:#41352E;}
	.st5{clip-path:url(#SVGID_8_);fill:#41352E;}
</style>
<rect x="-13.5" y="-13.9" class="st0" width="157.7" height="75.6"/>
<g>
	<g>
		<defs>
			<rect id="SVGID_1_" x="-4.9" y="-7.5" width="140.3" height="65.1"/>
		</defs>
		<clipPath id="SVGID_2_">
			<use xlink:href="#SVGID_1_"  style="overflow:visible;"/>
		</clipPath>
		<path class="st1" d="M27.2,16.5h-0.9c-2.9,0-5,0.3-5,3.6c0,3.4,2.3,3.7,5,3.7h0.9V16.5z M27.2,25.8h-2.1c-2.6,0-5.8,0.5-5.8,3.8
			c0,3.3,2.8,4,5.5,4h2.4V25.8z M29.6,35.9h-5c-4.3,0-7.7-1.7-7.7-6c0-2.6,1.5-4.9,4.1-5.5c-1.5-1-2.1-2.5-2.1-4.2
			c0-4.4,3.3-5.8,7.2-5.8h3.5V35.9z"/>
		<path class="st1" d="M44.2,33.6h2.4c2.7,0,5.5-0.7,5.5-4c0-3.4-3.2-3.8-5.8-3.8h-2.1V33.6z M44.2,23.8h0.9c2.7,0,5-0.3,5-3.7
			c0-3.3-2.1-3.6-5-3.6h-0.9V23.8z M41.8,14.3h3.5c3.9,0,7.2,1.4,7.2,5.8c0,1.7-0.7,3.2-2.1,4.2c2.6,0.6,4.1,3,4.1,5.5
			c0,4.3-3.5,6-7.7,6h-5V14.3z"/>
	</g>
	<path class="st2" d="M64.3,18.8l-3.7,8.7h7.3L64.3,18.8z M59.6,29.7L57,35.9h-2.6l10-22.6L74,35.9h-2.7l-2.5-6.1H59.6z"/>
	<polygon class="st2" points="75.4,13.3 92.2,31 92.2,14.3 94.6,14.3 94.6,36.8 77.8,19.2 77.8,35.9 75.4,35.9 	"/>
	<polygon class="st2" points="110.1,14.3 113.3,14.3 103.2,24.3 113.7,35.9 110.3,35.9 101.5,25.9 100.9,26.5 100.9,35.9 98.5,35.9 
		98.5,14.3 100.9,14.3 100.9,23.5 	"/>
	<polygon class="st2" points="31.9,34.8 34.7,34.8 34.7,31.7 35.7,31.7 35.7,34.8 40.4,34.8 40.4,35.9 31,35.9 31,31.6 31.9,31.6 	
		"/>
	<g>
		<defs>
			<rect id="SVGID_3_" x="-4.9" y="-7.5" width="140.3" height="65.1"/>
		</defs>
		<clipPath id="SVGID_4_">
			<use xlink:href="#SVGID_3_"  style="overflow:visible;"/>
		</clipPath>
		<path class="st3" d="M35.7,29.5c2.1,0,3.9-1.7,3.9-3.9s-1.8-3.9-3.9-3.9c-2.1,0-3.9,1.7-3.9,3.9S33.5,29.5,35.7,29.5 M35.7,20.8
			c2.7,0,4.9,2.2,4.9,4.9s-2.1,4.9-4.9,4.9c-2.7,0-4.9-2.2-4.9-4.9S33,20.8,35.7,20.8"/>
		<path class="st3" d="M35.3,18.5v-0.3c0-1.2-0.2-2.4-1.7-2.4c-1.5,0-1.7,1.1-1.7,2.4v0.3H35.3z M40.4,18.5v1.1H31v-1.4
			c0-1.8,0.5-3.5,2.6-3.5c1.4,0,2.5,0.9,2.6,2.4l4.2-3v1.3l-4.1,2.9v0.3H40.4z"/>
	</g>
</g>
</svg>
